<svg xmlns="http://www.w3.org/2000/svg" viewBox="0 0 16 16" shape-rendering="crispEdges">
  <g fill="#8f3f71">
    <rect x="5" y="1" width="6" height="1"/>
    <rect x="4" y="2" width="1" height="1"/>
    <rect x="11" y="2" width="1" height="1"/>
    <rect x="3" y="3" width="1" height="1"/>
    <rect x="12" y="3" width="1" height="1"/>
    <rect x="3" y="4" width="1" height="1"/>
    <rect x="12" y="4" width="1" height="1"/>
    <rect x="4" y="5" width="1" height="1"/>
    <rect x="11" y="5" width="1" height="1"/>
    <rect x="5" y="6" width="1" height="1"/>
    <rect x="10" y="6" width="1" height="1"/>
    <rect x="5" y="15" width="2" height="1"/>
    <rect x="6" y="7" width="1" height="1"/>
    <rect x="6" y="8" width="1" height="1"/>
    <rect x="5" y="9" width="1" height="1"/>
    <rect x="5" y="10" width="1" height="1"/>
    <rect x="5" y="11" width="1" height="1"/>
    <rect x="4" y="12" width="1" height="1"/>
    <rect x="4" y="13" width="1" height="1"/>
    <rect x="4" y="14" width="1" height="1"/>
    <rect x="9" y="7" width="1" height="1"/>
    <rect x="9" y="8" width="1" height="1"/>
    <rect x="8" y="9" width="1" height="1"/>
    <rect x="8" y="10" width="1" height="1"/>
    <rect x="8" y="11" width="1" height="1"/>
    <rect x="7" y="12" width="1" height="1"/>
    <rect x="7" y="13" width="1" height="1"/>
    <rect x="7" y="14" width="1" height="1"/>
  </g>
  <g fill="#b16286">
    <rect x="6" y="2" width="5" height="1"/>
    <rect x="4" y="3" width="1" height="1"/>
    <rect x="7" y="3" width="2" height="1"/>
    <rect x="11" y="3" width="1" height="1"/>
    <rect x="4" y="4" width="1" height="1"/>
    <rect x="6" y="4" width="1" height="1"/>
    <rect x="9" y="4" width="1" height="1"/>
    <rect x="11" y="4" width="1" height="1"/>
    <rect x="5" y="5" width="6" height="1"/>
    <rect x="6" y="6" width="4" height="1"/>
    <rect x="7" y="7" width="2" height="1"/>
    <rect x="7" y="8" width="2" height="1"/>
    <rect x="6" y="9" width="2" height="1"/>
    <rect x="6" y="10" width="2" height="1"/>
    <rect x="6" y="11" width="2" height="1"/>
    <rect x="5" y="12" width="2" height="1"/>
    <rect x="5" y="13" width="2" height="1"/>
    <rect x="5" y="14" width="2" height="1"/>
  </g>
  <g fill="#fabd2f">
    <rect x="5" y="2" width="1" height="1"/>
  </g>
  <g fill="#1d2021">
    <rect x="5" y="3" width="2" height="1"/>
    <rect x="9" y="3" width="2" height="1"/>
    <rect x="7" y="4" width="2" height="1"/>
  </g>
  <g fill="#fabd2f">
    <rect x="5" y="4" width="1" height="1"/>
    <rect x="10" y="4" width="1" height="1"/>
  </g>
  <g fill="#8f3f71">
    <rect x="3" y="9" width="1" height="1"/>
    <rect x="10" y="9" width="1" height="1"/>
    <rect x="2" y="10" width="3" height="1"/>
    <rect x="9" y="10" width="3" height="1"/>
    <rect x="3" y="11" width="1" height="1"/>
    <rect x="10" y="11" width="1" height="1"/>
  </g>
  <g fill="#8ec07c">
    <rect x="6" y="0" width="1" height="1"/>
    <rect x="9" y="0" width="1" height="1"/>
  </g>
</svg>
