<svg xmlns="http://www.w3.org/2000/svg" viewBox="3 -2 10 10" shape-rendering="crispEdges">
  <g fill="#79740e">
    <rect x="5" y="1" width="6" height="1"/>
    <rect x="4" y="2" width="1" height="1"/>
    <rect x="11" y="2" width="1" height="1"/>
    <rect x="3" y="3" width="1" height="1"/>
    <rect x="12" y="3" width="1" height="1"/>
    <rect x="3" y="4" width="1" height="1"/>
    <rect x="12" y="4" width="1" height="1"/>
    <rect x="4" y="5" width="1" height="1"/>
    <rect x="11" y="5" width="1" height="1"/>
    <rect x="5" y="6" width="1" height="1"/>
    <rect x="10" y="6" width="1" height="1"/>
  </g>
  <g fill="#b8bb26">
    <rect x="6" y="2" width="5" height="1"/>
    <rect x="4" y="3" width="1" height="1"/>
    <rect x="7" y="3" width="2" height="1"/>
    <rect x="11" y="3" width="1" height="1"/>
    <rect x="4" y="4" width="1" height="1"/>
    <rect x="6" y="4" width="1" height="1"/>
    <rect x="9" y="4" width="1" height="1"/>
    <rect x="11" y="4" width="1" height="1"/>
    <rect x="5" y="5" width="6" height="1"/>
    <rect x="6" y="6" width="4" height="1"/>
  </g>
  <g fill="#8ec07c">
    <rect x="5" y="2" width="1" height="1"/>
  </g>
  <g fill="#1d2021">
    <rect x="5" y="3" width="2" height="1"/>
    <rect x="9" y="3" width="2" height="1"/>
    <rect x="7" y="4" width="2" height="1"/>
  </g>
  <g fill="#d3869b">
    <rect x="5" y="4" width="1" height="1"/>
    <rect x="10" y="4" width="1" height="1"/>
  </g>
  <g fill="#fe8019">
    <rect x="6" y="0" width="1" height="1"/>
    <rect x="9" y="0" width="1" height="1"/>
  </g>
</svg>
