<svg xmlns="http://www.w3.org/2000/svg" viewBox="0 0 16 16" shape-rendering="crispEdges">
  <style>
    .frame { opacity: 0; animation: cycle 2s steps(1) infinite; }
    .f1 { animation-delay: 0s; }
    .f2 { animation-delay: 0.25s; }
    .f3 { animation-delay: 0.5s; }
    .f4 { animation-delay: 0.75s; }
    .f5 { animation-delay: 1s; }
    .f6 { animation-delay: 1.25s; }
    .f7 { animation-delay: 1.5s; }
    .f8 { animation-delay: 1.75s; }
    @keyframes cycle { 0% { opacity: 1; } 12.5%, 100% { opacity: 0; } }
  </style>
  <g class="frame f1">
    <g fill="#79740e">
      <rect x="5" y="1" width="6" height="1"/>
      <rect x="4" y="2" width="1" height="1"/>
      <rect x="11" y="2" width="1" height="1"/>
      <rect x="3" y="3" width="1" height="1"/>
      <rect x="12" y="3" width="1" height="1"/>
      <rect x="3" y="4" width="1" height="1"/>
      <rect x="12" y="4" width="1" height="1"/>
      <rect x="4" y="5" width="1" height="1"/>
      <rect x="11" y="5" width="1" height="1"/>
      <rect x="5" y="6" width="1" height="1"/>
      <rect x="10" y="6" width="1" height="1"/>
      <rect x="5" y="15" width="2" height="1"/>
      <rect x="6" y="7" width="1" height="1"/>
      <rect x="6" y="8" width="1" height="1"/>
      <rect x="5" y="9" width="1" height="1"/>
      <rect x="5" y="10" width="1" height="1"/>
      <rect x="5" y="11" width="1" height="1"/>
      <rect x="4" y="12" width="1" height="1"/>
      <rect x="4" y="13" width="1" height="1"/>
      <rect x="4" y="14" width="1" height="1"/>
      <rect x="9" y="7" width="1" height="1"/>
      <rect x="9" y="8" width="1" height="1"/>
      <rect x="8" y="9" width="1" height="1"/>
      <rect x="8" y="10" width="1" height="1"/>
      <rect x="8" y="11" width="1" height="1"/>
      <rect x="7" y="12" width="1" height="1"/>
      <rect x="7" y="13" width="1" height="1"/>
      <rect x="7" y="14" width="1" height="1"/>
    </g>
    <g fill="#b8bb26">
      <rect x="6" y="2" width="5" height="1"/>
      <rect x="4" y="3" width="1" height="1"/>
      <rect x="7" y="3" width="2" height="1"/>
      <rect x="11" y="3" width="1" height="1"/>
      <rect x="4" y="4" width="1" height="1"/>
      <rect x="6" y="4" width="1" height="1"/>
      <rect x="9" y="4" width="1" height="1"/>
      <rect x="11" y="4" width="1" height="1"/>
      <rect x="5" y="5" width="6" height="1"/>
      <rect x="6" y="6" width="4" height="1"/>
      <rect x="7" y="7" width="2" height="1"/>
      <rect x="7" y="8" width="2" height="1"/>
      <rect x="6" y="9" width="2" height="1"/>
      <rect x="6" y="10" width="2" height="1"/>
      <rect x="6" y="11" width="2" height="1"/>
      <rect x="5" y="12" width="2" height="1"/>
      <rect x="5" y="13" width="2" height="1"/>
      <rect x="5" y="14" width="2" height="1"/>
    </g>
    <g fill="#8ec07c">
      <rect x="5" y="2" width="1" height="1"/>
    </g>
    <g fill="#1d2021">
      <rect x="5" y="3" width="2" height="1"/>
      <rect x="9" y="3" width="2" height="1"/>
      <rect x="7" y="4" width="2" height="1"/>
    </g>
    <g fill="#d3869b">
      <rect x="5" y="4" width="1" height="1"/>
      <rect x="10" y="4" width="1" height="1"/>
    </g>
    <g fill="#98971a">
      <rect x="3" y="9" width="1" height="1"/>
      <rect x="10" y="9" width="1" height="1"/>
      <rect x="2" y="10" width="3" height="1"/>
      <rect x="9" y="10" width="3" height="1"/>
      <rect x="3" y="11" width="1" height="1"/>
      <rect x="10" y="11" width="1" height="1"/>
    </g>
    <g fill="#fe8019">
      <rect x="6" y="0" width="1" height="1"/>
      <rect x="9" y="0" width="1" height="1"/>
    </g>
  </g>
  <g class="frame f2">
    <g fill="#79740e">
      <rect x="5" y="1" width="6" height="1"/>
      <rect x="4" y="2" width="1" height="1"/>
      <rect x="11" y="2" width="1" height="1"/>
      <rect x="3" y="3" width="1" height="1"/>
      <rect x="12" y="3" width="1" height="1"/>
      <rect x="3" y="4" width="1" height="1"/>
      <rect x="12" y="4" width="1" height="1"/>
      <rect x="4" y="5" width="1" height="1"/>
      <rect x="11" y="5" width="1" height="1"/>
      <rect x="5" y="6" width="1" height="1"/>
      <rect x="10" y="6" width="1" height="1"/>
      <rect x="6" y="7" width="1" height="8"/>
      <rect x="9" y="7" width="1" height="8"/>
      <rect x="7" y="15" width="2" height="1"/>
    </g>
    <g fill="#b8bb26">
      <rect x="6" y="2" width="5" height="1"/>
      <rect x="4" y="3" width="1" height="1"/>
      <rect x="7" y="3" width="2" height="1"/>
      <rect x="11" y="3" width="1" height="1"/>
      <rect x="4" y="4" width="1" height="1"/>
      <rect x="6" y="4" width="1" height="1"/>
      <rect x="9" y="4" width="1" height="1"/>
      <rect x="11" y="4" width="1" height="1"/>
      <rect x="5" y="5" width="6" height="1"/>
      <rect x="6" y="6" width="4" height="1"/>
      <rect x="7" y="7" width="2" height="8"/>
    </g>
    <g fill="#8ec07c">
      <rect x="5" y="2" width="1" height="1"/>
    </g>
    <g fill="#1d2021">
      <rect x="5" y="3" width="2" height="1"/>
      <rect x="9" y="3" width="2" height="1"/>
      <rect x="7" y="4" width="2" height="1"/>
    </g>
    <g fill="#d3869b">
      <rect x="5" y="4" width="1" height="1"/>
      <rect x="10" y="4" width="1" height="1"/>
    </g>
    <g fill="#98971a">
      <rect x="4" y="9" width="1" height="1"/>
      <rect x="11" y="9" width="1" height="1"/>
      <rect x="3" y="10" width="3" height="1"/>
      <rect x="10" y="10" width="3" height="1"/>
      <rect x="4" y="11" width="1" height="1"/>
      <rect x="11" y="11" width="1" height="1"/>
    </g>
    <g fill="#fe8019">
      <rect x="6" y="0" width="1" height="1"/>
      <rect x="9" y="0" width="1" height="1"/>
    </g>
  </g>
  <g class="frame f3">
    <g fill="#79740e">
      <rect x="5" y="1" width="6" height="1"/>
      <rect x="4" y="2" width="1" height="1"/>
      <rect x="11" y="2" width="1" height="1"/>
      <rect x="3" y="3" width="1" height="1"/>
      <rect x="12" y="3" width="1" height="1"/>
      <rect x="3" y="4" width="1" height="1"/>
      <rect x="12" y="4" width="1" height="1"/>
      <rect x="4" y="5" width="1" height="1"/>
      <rect x="11" y="5" width="1" height="1"/>
      <rect x="5" y="6" width="1" height="1"/>
      <rect x="10" y="6" width="1" height="1"/>
      <rect x="9" y="15" width="2" height="1"/>
      <rect x="6" y="7" width="1" height="1"/>
      <rect x="6" y="8" width="1" height="1"/>
      <rect x="7" y="9" width="1" height="1"/>
      <rect x="7" y="10" width="1" height="1"/>
      <rect x="7" y="11" width="1" height="1"/>
      <rect x="8" y="12" width="1" height="1"/>
      <rect x="8" y="13" width="1" height="1"/>
      <rect x="8" y="14" width="1" height="1"/>
      <rect x="9" y="7" width="1" height="1"/>
      <rect x="9" y="8" width="1" height="1"/>
      <rect x="10" y="9" width="1" height="1"/>
      <rect x="10" y="10" width="1" height="1"/>
      <rect x="10" y="11" width="1" height="1"/>
      <rect x="11" y="12" width="1" height="1"/>
      <rect x="11" y="13" width="1" height="1"/>
      <rect x="11" y="14" width="1" height="1"/>
    </g>
    <g fill="#b8bb26">
      <rect x="6" y="2" width="5" height="1"/>
      <rect x="4" y="3" width="1" height="1"/>
      <rect x="7" y="3" width="2" height="1"/>
      <rect x="11" y="3" width="1" height="1"/>
      <rect x="4" y="4" width="1" height="1"/>
      <rect x="6" y="4" width="1" height="1"/>
      <rect x="9" y="4" width="1" height="1"/>
      <rect x="11" y="4" width="1" height="1"/>
      <rect x="5" y="5" width="6" height="1"/>
      <rect x="6" y="6" width="4" height="1"/>
      <rect x="7" y="7" width="2" height="1"/>
      <rect x="7" y="8" width="2" height="1"/>
      <rect x="8" y="9" width="2" height="1"/>
      <rect x="8" y="10" width="2" height="1"/>
      <rect x="8" y="11" width="2" height="1"/>
      <rect x="9" y="12" width="2" height="1"/>
      <rect x="9" y="13" width="2" height="1"/>
      <rect x="9" y="14" width="2" height="1"/>
    </g>
    <g fill="#8ec07c">
      <rect x="5" y="2" width="1" height="1"/>
    </g>
    <g fill="#1d2021">
      <rect x="5" y="3" width="2" height="1"/>
      <rect x="9" y="3" width="2" height="1"/>
      <rect x="7" y="4" width="2" height="1"/>
    </g>
    <g fill="#d3869b">
      <rect x="5" y="4" width="1" height="1"/>
      <rect x="10" y="4" width="1" height="1"/>
    </g>
    <g fill="#98971a">
      <rect x="5" y="9" width="1" height="1"/>
      <rect x="12" y="9" width="1" height="1"/>
      <rect x="4" y="10" width="3" height="1"/>
      <rect x="11" y="10" width="3" height="1"/>
      <rect x="5" y="11" width="1" height="1"/>
      <rect x="12" y="11" width="1" height="1"/>
    </g>
    <g fill="#fe8019">
      <rect x="6" y="0" width="1" height="1"/>
      <rect x="9" y="0" width="1" height="1"/>
    </g>
  </g>
  <g class="frame f4">
    <g fill="#79740e">
      <rect x="5" y="1" width="6" height="1"/>
      <rect x="4" y="2" width="1" height="1"/>
      <rect x="11" y="2" width="1" height="1"/>
      <rect x="3" y="3" width="1" height="1"/>
      <rect x="12" y="3" width="1" height="1"/>
      <rect x="3" y="4" width="1" height="1"/>
      <rect x="12" y="4" width="1" height="1"/>
      <rect x="4" y="5" width="1" height="1"/>
      <rect x="11" y="5" width="1" height="1"/>
      <rect x="5" y="6" width="1" height="1"/>
      <rect x="10" y="6" width="1" height="1"/>
      <rect x="6" y="7" width="1" height="8"/>
      <rect x="9" y="7" width="1" height="8"/>
      <rect x="7" y="15" width="2" height="1"/>
    </g>
    <g fill="#b8bb26">
      <rect x="6" y="2" width="5" height="1"/>
      <rect x="4" y="3" width="1" height="1"/>
      <rect x="7" y="3" width="2" height="1"/>
      <rect x="11" y="3" width="1" height="1"/>
      <rect x="4" y="4" width="1" height="1"/>
      <rect x="6" y="4" width="1" height="1"/>
      <rect x="9" y="4" width="1" height="1"/>
      <rect x="11" y="4" width="1" height="1"/>
      <rect x="5" y="5" width="6" height="1"/>
      <rect x="6" y="6" width="4" height="1"/>
      <rect x="7" y="7" width="2" height="8"/>
    </g>
    <g fill="#8ec07c">
      <rect x="5" y="2" width="1" height="1"/>
    </g>
    <g fill="#1d2021">
      <rect x="5" y="3" width="2" height="1"/>
      <rect x="9" y="3" width="2" height="1"/>
      <rect x="7" y="4" width="2" height="1"/>
    </g>
    <g fill="#d3869b">
      <rect x="5" y="4" width="1" height="1"/>
      <rect x="10" y="4" width="1" height="1"/>
    </g>
    <g fill="#98971a">
      <rect x="4" y="9" width="1" height="1"/>
      <rect x="11" y="9" width="1" height="1"/>
      <rect x="3" y="10" width="3" height="1"/>
      <rect x="10" y="10" width="3" height="1"/>
      <rect x="4" y="11" width="1" height="1"/>
      <rect x="11" y="11" width="1" height="1"/>
    </g>
    <g fill="#fe8019">
      <rect x="6" y="0" width="1" height="1"/>
      <rect x="9" y="0" width="1" height="1"/>
    </g>
  </g>
  <g class="frame f5">
    <g fill="#79740e">
      <rect x="5" y="1" width="6" height="1"/>
      <rect x="4" y="2" width="1" height="1"/>
      <rect x="11" y="2" width="1" height="1"/>
      <rect x="3" y="3" width="1" height="1"/>
      <rect x="12" y="3" width="1" height="1"/>
      <rect x="3" y="4" width="1" height="1"/>
      <rect x="12" y="4" width="1" height="1"/>
      <rect x="4" y="5" width="1" height="1"/>
      <rect x="11" y="5" width="1" height="1"/>
      <rect x="5" y="6" width="1" height="1"/>
      <rect x="10" y="6" width="1" height="1"/>
      <rect x="6" y="7" width="1" height="8"/>
      <rect x="9" y="7" width="1" height="8"/>
      <rect x="7" y="15" width="2" height="1"/>
    </g>
    <g fill="#b8bb26">
      <rect x="6" y="2" width="5" height="1"/>
      <rect x="4" y="3" width="1" height="1"/>
      <rect x="7" y="3" width="2" height="1"/>
      <rect x="11" y="3" width="1" height="1"/>
      <rect x="4" y="4" width="1" height="1"/>
      <rect x="6" y="4" width="1" height="1"/>
      <rect x="9" y="4" width="1" height="1"/>
      <rect x="11" y="4" width="1" height="1"/>
      <rect x="5" y="5" width="6" height="1"/>
      <rect x="6" y="6" width="4" height="1"/>
      <rect x="7" y="7" width="2" height="8"/>
    </g>
    <g fill="#8ec07c">
      <rect x="5" y="2" width="1" height="1"/>
    </g>
    <g fill="#1d2021">
      <rect x="5" y="3" width="2" height="1"/>
      <rect x="9" y="3" width="2" height="1"/>
      <rect x="7" y="4" width="2" height="1"/>
    </g>
    <g fill="#d3869b">
      <rect x="5" y="4" width="1" height="1"/>
      <rect x="10" y="4" width="1" height="1"/>
    </g>
    <g fill="#98971a">
      <rect x="4" y="7" width="1" height="1"/>
      <rect x="3" y="8" width="3" height="1"/>
      <rect x="4" y="9" width="1" height="1"/>
      <rect x="11" y="11" width="1" height="1"/>
      <rect x="10" y="12" width="3" height="1"/>
      <rect x="11" y="13" width="1" height="1"/>
    </g>
    <g fill="#fe8019">
      <rect x="6" y="0" width="1" height="1"/>
      <rect x="9" y="0" width="1" height="1"/>
    </g>
  </g>
  <g class="frame f6">
    <g fill="#79740e">
      <rect x="5" y="1" width="6" height="1"/>
      <rect x="4" y="2" width="1" height="1"/>
      <rect x="11" y="2" width="1" height="1"/>
      <rect x="3" y="3" width="1" height="1"/>
      <rect x="12" y="3" width="1" height="1"/>
      <rect x="3" y="4" width="1" height="1"/>
      <rect x="12" y="4" width="1" height="1"/>
      <rect x="4" y="5" width="1" height="1"/>
      <rect x="11" y="5" width="1" height="1"/>
      <rect x="5" y="6" width="1" height="1"/>
      <rect x="10" y="6" width="1" height="1"/>
      <rect x="6" y="7" width="1" height="8"/>
      <rect x="9" y="7" width="1" height="8"/>
      <rect x="7" y="15" width="2" height="1"/>
    </g>
    <g fill="#b8bb26">
      <rect x="6" y="2" width="5" height="1"/>
      <rect x="4" y="3" width="1" height="1"/>
      <rect x="7" y="3" width="2" height="1"/>
      <rect x="11" y="3" width="1" height="1"/>
      <rect x="4" y="4" width="1" height="1"/>
      <rect x="6" y="4" width="1" height="1"/>
      <rect x="9" y="4" width="1" height="1"/>
      <rect x="11" y="4" width="1" height="1"/>
      <rect x="5" y="5" width="6" height="1"/>
      <rect x="6" y="6" width="4" height="1"/>
      <rect x="7" y="7" width="2" height="8"/>
    </g>
    <g fill="#8ec07c">
      <rect x="5" y="2" width="1" height="1"/>
    </g>
    <g fill="#1d2021">
      <rect x="5" y="3" width="2" height="1"/>
      <rect x="9" y="3" width="2" height="1"/>
      <rect x="7" y="4" width="2" height="1"/>
    </g>
    <g fill="#d3869b">
      <rect x="5" y="4" width="1" height="1"/>
      <rect x="10" y="4" width="1" height="1"/>
    </g>
    <g fill="#98971a">
      <rect x="4" y="9" width="1" height="1"/>
      <rect x="11" y="9" width="1" height="1"/>
      <rect x="3" y="10" width="3" height="1"/>
      <rect x="10" y="10" width="3" height="1"/>
      <rect x="4" y="11" width="1" height="1"/>
      <rect x="11" y="11" width="1" height="1"/>
    </g>
    <g fill="#fe8019">
      <rect x="6" y="0" width="1" height="1"/>
      <rect x="9" y="0" width="1" height="1"/>
    </g>
  </g>
  <g class="frame f7">
    <g fill="#79740e">
      <rect x="5" y="1" width="6" height="1"/>
      <rect x="4" y="2" width="1" height="1"/>
      <rect x="11" y="2" width="1" height="1"/>
      <rect x="3" y="3" width="1" height="1"/>
      <rect x="12" y="3" width="1" height="1"/>
      <rect x="3" y="4" width="1" height="1"/>
      <rect x="12" y="4" width="1" height="1"/>
      <rect x="4" y="5" width="1" height="1"/>
      <rect x="11" y="5" width="1" height="1"/>
      <rect x="5" y="6" width="1" height="1"/>
      <rect x="10" y="6" width="1" height="1"/>
      <rect x="6" y="7" width="1" height="8"/>
      <rect x="9" y="7" width="1" height="8"/>
      <rect x="7" y="15" width="2" height="1"/>
    </g>
    <g fill="#b8bb26">
      <rect x="6" y="2" width="5" height="1"/>
      <rect x="4" y="3" width="1" height="1"/>
      <rect x="7" y="3" width="2" height="1"/>
      <rect x="11" y="3" width="1" height="1"/>
      <rect x="4" y="4" width="1" height="1"/>
      <rect x="6" y="4" width="1" height="1"/>
      <rect x="9" y="4" width="1" height="1"/>
      <rect x="11" y="4" width="1" height="1"/>
      <rect x="5" y="5" width="6" height="1"/>
      <rect x="6" y="6" width="4" height="1"/>
      <rect x="7" y="7" width="2" height="8"/>
    </g>
    <g fill="#8ec07c">
      <rect x="5" y="2" width="1" height="1"/>
    </g>
    <g fill="#1d2021">
      <rect x="5" y="3" width="2" height="1"/>
      <rect x="9" y="3" width="2" height="1"/>
      <rect x="7" y="4" width="2" height="1"/>
    </g>
    <g fill="#d3869b">
      <rect x="5" y="4" width="1" height="1"/>
      <rect x="10" y="4" width="1" height="1"/>
    </g>
    <g fill="#98971a">
      <rect x="11" y="7" width="1" height="1"/>
      <rect x="10" y="8" width="3" height="1"/>
      <rect x="11" y="9" width="1" height="1"/>
      <rect x="4" y="11" width="1" height="1"/>
      <rect x="3" y="12" width="3" height="1"/>
      <rect x="4" y="13" width="1" height="1"/>
    </g>
    <g fill="#fe8019">
      <rect x="6" y="0" width="1" height="1"/>
      <rect x="9" y="0" width="1" height="1"/>
    </g>
  </g>
  <g class="frame f8">
    <g fill="#79740e">
      <rect x="5" y="1" width="6" height="1"/>
      <rect x="4" y="2" width="1" height="1"/>
      <rect x="11" y="2" width="1" height="1"/>
      <rect x="3" y="3" width="1" height="1"/>
      <rect x="12" y="3" width="1" height="1"/>
      <rect x="3" y="4" width="1" height="1"/>
      <rect x="12" y="4" width="1" height="1"/>
      <rect x="4" y="5" width="1" height="1"/>
      <rect x="11" y="5" width="1" height="1"/>
      <rect x="5" y="6" width="1" height="1"/>
      <rect x="10" y="6" width="1" height="1"/>
      <rect x="6" y="7" width="1" height="8"/>
      <rect x="9" y="7" width="1" height="8"/>
      <rect x="7" y="15" width="2" height="1"/>
    </g>
    <g fill="#b8bb26">
      <rect x="6" y="2" width="5" height="1"/>
      <rect x="4" y="3" width="1" height="1"/>
      <rect x="7" y="3" width="2" height="1"/>
      <rect x="11" y="3" width="1" height="1"/>
      <rect x="4" y="4" width="1" height="1"/>
      <rect x="6" y="4" width="1" height="1"/>
      <rect x="9" y="4" width="1" height="1"/>
      <rect x="11" y="4" width="1" height="1"/>
      <rect x="5" y="5" width="6" height="1"/>
      <rect x="6" y="6" width="4" height="1"/>
      <rect x="7" y="7" width="2" height="8"/>
    </g>
    <g fill="#8ec07c">
      <rect x="5" y="2" width="1" height="1"/>
    </g>
    <g fill="#1d2021">
      <rect x="5" y="3" width="2" height="1"/>
      <rect x="9" y="3" width="2" height="1"/>
      <rect x="7" y="4" width="2" height="1"/>
    </g>
    <g fill="#d3869b">
      <rect x="5" y="4" width="1" height="1"/>
      <rect x="10" y="4" width="1" height="1"/>
    </g>
    <g fill="#98971a">
      <rect x="4" y="9" width="1" height="1"/>
      <rect x="11" y="9" width="1" height="1"/>
      <rect x="3" y="10" width="3" height="1"/>
      <rect x="10" y="10" width="3" height="1"/>
      <rect x="4" y="11" width="1" height="1"/>
      <rect x="11" y="11" width="1" height="1"/>
    </g>
    <g fill="#fe8019">
      <rect x="6" y="0" width="1" height="1"/>
      <rect x="9" y="0" width="1" height="1"/>
    </g>
  </g>
</svg>
